<svg xmlns="http://www.w3.org/2000/svg" data-name="Layer 1" viewBox="0 0 512 512"><path d="M299.535,302.193l-71.316-41.819A10,10,0,0,0,213.161,269v83.638a10,10,0,0,0,15.058,8.626l71.316-41.819a10,10,0,0,0,0-17.252ZM233.16,335.182V286.456l41.547,24.363Z"/><path d="M415.562 166.589H96.438a50.057 50.057 0 0 0-50 50V403a50.057 50.057 0 0 0 50 50H415.561a50.057 50.057 0 0 0 50-50V216.589A50.055 50.055 0 0 0 415.562 166.589zm30 236.411a30.034 30.034 0 0 1-30 30H96.438a30.034 30.034 0 0 1-30-30V216.589a30.034 30.034 0 0 1 30-30H415.561a30.034 30.034 0 0 1 30 30V403zM107.425 135.356h297.15a10 10 0 1 0 0-20H107.425a10 10 0 0 0 0 20zM153.534 79H358.466a10 10 0 0 0 0-20H153.534a10 10 0 0 0 0 20z"/></svg>