<svg xmlns="http://www.w3.org/2000/svg" viewBox="0 0 24 24"><path d="M13,12a1,1,0,1,1-1-1h0A1,1,0,0,1,13,12Zm6.05-7.07a1,1,0,0,0-1.42,1.42,8,8,0,0,1,0,11.3,1,1,0,0,0,0,1.42,1,1,0,0,0,1.42,0,10,10,0,0,0,0-14.14ZM4,12A7.91,7.91,0,0,1,6.35,6.35,1,1,0,0,0,4.93,4.93a10,10,0,0,0,0,14.14,1,1,0,0,0,1.42,0,1,1,0,0,0,0-1.42A7.91,7.91,0,0,1,4,12ZM16.94,7.05a1,1,0,0,0-1.4,1.42,5,5,0,0,1,0,7.06,1,1,0,0,0,.7,1.71,1,1,0,0,0,.7-.29,7,7,0,0,0,0-9.9ZM7,12A5,5,0,0,1,8.46,8.47a1,1,0,1,0-1.4-1.42,7,7,0,0,0,0,9.9,1,1,0,0,0,1.41,0,1,1,0,0,0,0-1.41A5,5,0,0,1,7,12Zm3.59-2.83a1,1,0,0,0-1.42,0,4,4,0,0,0,0,5.66,1,1,0,0,0,1.42,0,1,1,0,0,0,0-1.42,2,2,0,0,1,0-2.82A1,1,0,0,0,10.59,9.17Zm4.24,0a1,1,0,0,0-1.42,1.42,2,2,0,0,1,0,2.82,1,1,0,0,0,0,1.42,1,1,0,0,0,1.42,0,4,4,0,0,0,0-5.66Z" data-name="41 Live"/></svg>